<svg width="70" height="70" viewBox="0 0 70 70" fill="none" xmlns="http://www.w3.org/2000/svg">
<path d="M35.1458 67.0832L21.4375 40.8332C17.9861 40.979 15.0087 39.9825 12.5052 37.8436C10.0017 35.7047 8.75 32.8123 8.75 29.1665C8.75 26.6873 9.46701 24.4512 10.901 22.4582C12.3351 20.4651 14.1458 19.0554 16.3333 18.229C17.2083 13.8054 19.3837 10.1474 22.8594 7.25505C26.3351 4.36268 30.3819 2.9165 35 2.9165C39.6181 2.9165 43.6649 4.36268 47.1406 7.25505C50.6163 10.1474 52.7917 13.8054 53.6667 18.229C55.8542 19.0554 57.6649 20.4651 59.099 22.4582C60.533 24.4512 61.25 26.6873 61.25 29.1665C61.25 32.8123 59.9618 35.7047 57.3854 37.8436C54.809 39.9825 51.9167 40.979 48.7083 40.8332L35.1458 67.0832ZM20.4167 34.9998C21.1458 34.9998 21.8628 34.8783 22.5677 34.6353C23.2726 34.3922 23.9167 33.979 24.5 33.3957L26.1042 31.7915L28 32.9582C29.0208 33.6387 30.1267 34.1491 31.3177 34.4894C32.5087 34.8297 33.7361 34.9998 35 34.9998C36.2639 34.9998 37.4913 34.8297 38.6823 34.4894C39.8733 34.1491 40.9792 33.6387 42 32.9582L43.8958 31.7915L45.5 33.3957C46.0833 33.979 46.7274 34.3922 47.4323 34.6353C48.1371 34.8783 48.8542 34.9998 49.5833 34.9998C51.1875 34.9998 52.5608 34.4287 53.7031 33.2863C54.8455 32.1439 55.4167 30.7707 55.4167 29.1665C55.4167 27.7082 54.9549 26.4321 54.0312 25.3384C53.1076 24.2446 51.9167 23.5762 50.4583 23.3332L48.2708 23.0415L48.125 20.7082C47.8819 17.354 46.4965 14.5224 43.9688 12.2134C41.441 9.90435 38.4514 8.74984 35 8.74984C31.5486 8.74984 28.559 9.90435 26.0312 12.2134C23.5035 14.5224 22.1181 17.354 21.875 20.7082L21.7292 23.0415L19.5417 23.479C18.0833 23.7707 16.8924 24.4269 15.9687 25.4478C15.0451 26.4686 14.5833 27.7082 14.5833 29.1665C14.5833 30.7707 15.1545 32.1439 16.2969 33.2863C17.4392 34.4287 18.8125 34.9998 20.4167 34.9998ZM35.1458 54.3957L43.0208 39.0832C41.8542 39.6665 40.5903 40.104 39.2292 40.3957C37.8681 40.6873 36.4583 40.8332 35 40.8332C33.6875 40.8332 32.3628 40.6873 31.026 40.3957C29.6892 40.104 28.3889 39.6665 27.125 39.0832L35.1458 54.3957Z" fill="#FEA115"/>
</svg>
