<svg width="70" height="70" viewBox="0 0 70 70" fill="none" xmlns="http://www.w3.org/2000/svg">
<path d="M34.9999 64.1667L5.83325 20.4167C9.9652 16.9167 14.4982 14.0972 19.4322 11.9583C24.3662 9.81944 29.5555 8.75 34.9999 8.75C40.4444 8.75 45.6336 9.80729 50.5676 11.9219C55.5017 14.0365 60.0346 16.8681 64.1666 20.4167L34.9999 64.1667ZM34.9999 53.6667L56.2916 21.7292C53.1319 19.5417 49.7534 17.8038 46.1562 16.5156C42.5589 15.2274 38.8402 14.5833 34.9999 14.5833C31.1596 14.5833 27.453 15.2274 23.8801 16.5156C20.3072 17.8038 16.9166 19.5417 13.7083 21.7292L34.9999 53.6667ZM27.7083 29.1667C28.9235 29.1667 29.9565 28.7413 30.8072 27.8906C31.6579 27.0399 32.0833 26.0069 32.0833 24.7917C32.0833 23.5764 31.6579 22.5434 30.8072 21.6927C29.9565 20.842 28.9235 20.4167 27.7083 20.4167C26.493 20.4167 25.46 20.842 24.6093 21.6927C23.7586 22.5434 23.3333 23.5764 23.3333 24.7917C23.3333 26.0069 23.7586 27.0399 24.6093 27.8906C25.46 28.7413 26.493 29.1667 27.7083 29.1667ZM34.9999 43.75C36.2152 43.75 37.2482 43.3246 38.0989 42.474C38.9496 41.6233 39.3749 40.5903 39.3749 39.375C39.3749 38.1597 38.9496 37.1267 38.0989 36.276C37.2482 35.4253 36.2152 35 34.9999 35C33.7846 35 32.7517 35.4253 31.901 36.276C31.0503 37.1267 30.6249 38.1597 30.6249 39.375C30.6249 40.5903 31.0503 41.6233 31.901 42.474C32.7517 43.3246 33.7846 43.75 34.9999 43.75Z" fill="#FEA115"/>
</svg>
