<svg width="346" height="76" viewBox="0 0 346 76" fill="none" xmlns="http://www.w3.org/2000/svg">
<path fill-rule="evenodd" clip-rule="evenodd" d="M88.8665 15.4062C89.1911 14.9594 89.0922 14.3333 88.6412 14.0146C75.7458 4.90082 60.3359 0 44.5287 0C28.7214 0 13.3115 4.90082 0.416125 14.0146C-0.034891 14.3333 -0.133778 14.9594 0.190847 15.4062L30.2039 56.7156C30.7714 57.4967 31.9826 57.0998 31.9473 56.135C31.8871 54.4922 31.7665 52.7482 31.5661 50.8988C30.5855 46.486 28.3372 45.1272 26.548 44.0459C25.2924 43.2871 24.2629 42.6649 24.0564 41.2197C23.6595 38.4407 23.8855 19.2547 24.052 9.76235C24.055 9.59437 24.0959 9.4322 24.1974 9.29827C24.8643 8.4177 26.0766 8.41516 26.7468 9.29067C26.8525 9.42886 26.8934 9.60361 26.8934 9.77764V31.3852C26.8934 31.6937 27.0341 31.9879 27.2839 32.169C28.4235 32.9948 28.6671 32.7859 29.6971 31.9028C29.7183 31.8847 29.7304 31.8582 29.7304 31.8303V9.77764C29.7304 9.60362 29.7714 9.42886 29.8771 9.29067C30.5449 8.41823 31.7511 8.41769 32.4195 9.28907C32.5262 9.42815 32.5671 9.59472 32.5665 9.77001C32.5596 11.733 32.518 24.4259 32.5642 31.4152C32.5662 31.7093 32.6933 31.9908 32.9447 32.1435C33.8015 32.6641 34.8535 32.743 35.3898 32.1432C35.5307 31.9856 35.557 31.7643 35.5477 31.5532C35.4378 29.0525 35.5373 14.1564 35.5648 10.0501C35.5662 9.83257 35.5675 9.64534 35.5685 9.49183C35.5705 9.18805 35.7042 8.88899 35.9771 8.75557C36.6007 8.45074 37.3521 8.43059 37.8596 8.69513C38.1387 8.84062 38.2675 9.18552 38.2771 9.50012C38.3573 12.1214 38.2933 24.6522 38.2438 31.5421C38.2423 31.761 38.3077 31.9747 38.4611 32.1307C39.2523 32.9353 40.2612 32.7848 40.8715 32.2957C41.1456 32.076 41.2731 31.6702 41.2829 31.319C41.3596 28.579 41.2976 16.3546 41.2488 9.49179C41.2466 9.18543 41.3792 8.88738 41.6529 8.74981C42.2959 8.42667 43.0395 8.43127 43.5966 8.76353C43.8196 8.89653 43.9176 9.15611 43.9224 9.41571C43.9706 12.0539 44.0788 15.254 44.1919 18.5983C44.5242 28.4259 44.8986 39.499 43.9154 41.2197C43.3225 42.2573 42.4414 42.999 41.4687 43.8178L41.4687 43.8178C39.6851 45.3192 37.5936 47.0799 36.4057 51.3994C35.7469 56.231 35.9009 60.7735 36.2081 64.7299C36.2223 64.9134 36.2874 65.0888 36.3955 65.2377L43.7196 75.3184C44.119 75.8681 44.9384 75.8681 45.3377 75.3184L57.8256 58.1303C57.9176 58.0037 57.9409 57.8369 57.8838 57.6912C57.8152 57.516 57.6419 57.4128 57.4564 57.3812C50.3454 56.1674 50.9247 13.1222 63.2302 5.23501C63.4697 5.08148 63.778 5.04174 63.9843 5.23765C65.4744 6.65271 65.3684 13.6709 65.0835 32.5283C65.0266 36.2968 64.9625 40.5382 64.9026 45.3022C64.8904 46.2768 66.1371 46.6905 66.7099 45.9021L88.8665 15.4062Z" fill="#FEA115"/>
<path d="M104.431 55V20.0909H118.204C120.852 20.0909 123.107 20.5966 124.971 21.608C126.835 22.608 128.255 24 129.232 25.7841C130.221 27.5568 130.715 29.6023 130.715 31.9205C130.715 34.2386 130.215 36.2841 129.215 38.0568C128.215 39.8295 126.767 41.2102 124.869 42.1989C122.982 43.1875 120.698 43.6818 118.017 43.6818H109.238V37.767H116.823C118.244 37.767 119.414 37.5227 120.335 37.0341C121.267 36.5341 121.96 35.8466 122.414 34.9716C122.88 34.0852 123.113 33.0682 123.113 31.9205C123.113 30.7614 122.88 29.75 122.414 28.8864C121.96 28.0114 121.267 27.3352 120.335 26.858C119.403 26.3693 118.221 26.125 116.789 26.125H111.812V55H104.431ZM134.413 55V28.8182H141.674V55H134.413ZM138.061 25.4432C136.981 25.4432 136.055 25.0852 135.282 24.3693C134.521 23.642 134.14 22.7727 134.14 21.7614C134.14 20.7614 134.521 19.9034 135.282 19.1875C136.055 18.4602 136.981 18.0966 138.061 18.0966C139.14 18.0966 140.061 18.4602 140.822 19.1875C141.595 19.9034 141.981 20.7614 141.981 21.7614C141.981 22.7727 141.595 23.642 140.822 24.3693C140.061 25.0852 139.14 25.4432 138.061 25.4432ZM146.395 55V50.6705L159.213 34.8011V34.6136H146.838V28.8182H167.957V33.5398L155.923 49.017V49.2045H168.401V55H146.395ZM172.857 55V50.6705L185.675 34.8011V34.6136H173.3V28.8182H194.419V33.5398L182.385 49.017V49.2045H194.862V55H172.857ZM206.921 55.4943C205.25 55.4943 203.762 55.2045 202.455 54.625C201.148 54.0341 200.114 53.1648 199.353 52.017C198.603 50.858 198.228 49.4148 198.228 47.6875C198.228 46.233 198.495 45.0114 199.029 44.0227C199.563 43.0341 200.29 42.2386 201.211 41.6364C202.131 41.0341 203.177 40.5795 204.347 40.2727C205.529 39.9659 206.767 39.75 208.063 39.625C209.586 39.4659 210.813 39.3182 211.745 39.1818C212.677 39.0341 213.353 38.8182 213.773 38.5341C214.194 38.25 214.404 37.8295 214.404 37.2727V37.1705C214.404 36.0909 214.063 35.2557 213.381 34.6648C212.711 34.0739 211.756 33.7784 210.517 33.7784C209.211 33.7784 208.171 34.0682 207.398 34.6477C206.625 35.2159 206.114 35.9318 205.864 36.7955L199.148 36.25C199.489 34.6591 200.159 33.2841 201.159 32.125C202.159 30.9545 203.449 30.0568 205.029 29.4318C206.62 28.7955 208.461 28.4773 210.552 28.4773C212.006 28.4773 213.398 28.6477 214.728 28.9886C216.069 29.3295 217.256 29.858 218.29 30.5739C219.336 31.2898 220.159 32.2102 220.762 33.3352C221.364 34.4489 221.665 35.7841 221.665 37.3409V55H214.779V51.3693H214.574C214.154 52.1875 213.591 52.9091 212.887 53.5341C212.182 54.1477 211.336 54.6307 210.347 54.983C209.358 55.3239 208.216 55.4943 206.921 55.4943ZM209 50.483C210.069 50.483 211.012 50.2727 211.83 49.8523C212.648 49.4205 213.29 48.8409 213.756 48.1136C214.222 47.3864 214.455 46.5625 214.455 45.642V42.8636C214.228 43.0114 213.915 43.1477 213.517 43.2727C213.131 43.3864 212.694 43.4943 212.205 43.5966C211.716 43.6875 211.228 43.7727 210.739 43.8523C210.25 43.9205 209.807 43.983 209.409 44.0398C208.557 44.1648 207.813 44.3636 207.177 44.6364C206.54 44.9091 206.046 45.2784 205.694 45.7443C205.341 46.1989 205.165 46.767 205.165 47.4489C205.165 48.4375 205.523 49.1932 206.239 49.7159C206.966 50.2273 207.887 50.483 209 50.483ZM243.128 43.8523V28.8182H250.39V55H243.418V50.2443H243.146C242.555 51.7784 241.572 53.0114 240.197 53.9432C238.833 54.875 237.168 55.3409 235.202 55.3409C233.452 55.3409 231.913 54.9432 230.583 54.1477C229.253 53.3523 228.214 52.2216 227.464 50.7557C226.725 49.2898 226.35 47.5341 226.339 45.4886V28.8182H233.6V44.1932C233.611 45.7386 234.026 46.9602 234.844 47.858C235.663 48.7557 236.759 49.2045 238.134 49.2045C239.009 49.2045 239.827 49.0057 240.589 48.608C241.35 48.1989 241.964 47.5966 242.43 46.8011C242.907 46.0057 243.14 45.0227 243.128 43.8523ZM255.238 55V28.8182H262.278V33.3864H262.551C263.028 31.7614 263.829 30.5341 264.954 29.7045C266.079 28.8636 267.374 28.4432 268.84 28.4432C269.204 28.4432 269.596 28.4659 270.016 28.5114C270.437 28.5568 270.806 28.6193 271.124 28.6989V35.142C270.784 35.0398 270.312 34.9489 269.71 34.8693C269.107 34.7898 268.556 34.75 268.056 34.75C266.988 34.75 266.034 34.983 265.193 35.4489C264.363 35.9034 263.704 36.5398 263.215 37.358C262.738 38.1761 262.499 39.1193 262.499 40.1875V55H255.238ZM280.635 55.4943C278.964 55.4943 277.476 55.2045 276.169 54.625C274.862 54.0341 273.828 53.1648 273.066 52.017C272.316 50.858 271.941 49.4148 271.941 47.6875C271.941 46.233 272.208 45.0114 272.743 44.0227C273.277 43.0341 274.004 42.2386 274.924 41.6364C275.845 41.0341 276.89 40.5795 278.061 40.2727C279.243 39.9659 280.481 39.75 281.777 39.625C283.299 39.4659 284.527 39.3182 285.458 39.1818C286.39 39.0341 287.066 38.8182 287.487 38.5341C287.907 38.25 288.118 37.8295 288.118 37.2727V37.1705C288.118 36.0909 287.777 35.2557 287.095 34.6648C286.424 34.0739 285.47 33.7784 284.231 33.7784C282.924 33.7784 281.885 34.0682 281.112 34.6477C280.339 35.2159 279.828 35.9318 279.578 36.7955L272.862 36.25C273.203 34.6591 273.873 33.2841 274.873 32.125C275.873 30.9545 277.163 30.0568 278.743 29.4318C280.333 28.7955 282.174 28.4773 284.265 28.4773C285.72 28.4773 287.112 28.6477 288.441 28.9886C289.782 29.3295 290.97 29.858 292.004 30.5739C293.049 31.2898 293.873 32.2102 294.476 33.3352C295.078 34.4489 295.379 35.7841 295.379 37.3409V55H288.493V51.3693H288.288C287.868 52.1875 287.305 52.9091 286.601 53.5341C285.896 54.1477 285.049 54.6307 284.061 54.983C283.072 55.3239 281.93 55.4943 280.635 55.4943ZM282.714 50.483C283.782 50.483 284.726 50.2727 285.544 49.8523C286.362 49.4205 287.004 48.8409 287.47 48.1136C287.936 47.3864 288.169 46.5625 288.169 45.642V42.8636C287.941 43.0114 287.629 43.1477 287.231 43.2727C286.845 43.3864 286.407 43.4943 285.919 43.5966C285.43 43.6875 284.941 43.7727 284.453 43.8523C283.964 43.9205 283.521 43.983 283.123 44.0398C282.271 44.1648 281.527 44.3636 280.89 44.6364C280.254 44.9091 279.76 45.2784 279.407 45.7443C279.055 46.1989 278.879 46.767 278.879 47.4489C278.879 48.4375 279.237 49.1932 279.953 49.7159C280.68 50.2273 281.601 50.483 282.714 50.483ZM307.314 39.8636V55H300.052V28.8182H306.973V33.4375H307.28C307.859 31.9148 308.831 30.7102 310.194 29.8239C311.558 28.9261 313.212 28.4773 315.155 28.4773C316.973 28.4773 318.558 28.875 319.91 29.6705C321.263 30.4659 322.314 31.6023 323.064 33.0795C323.814 34.5455 324.189 36.2955 324.189 38.3295V55H316.927V39.625C316.939 38.0227 316.53 36.7727 315.7 35.875C314.871 34.9659 313.729 34.5114 312.274 34.5114C311.297 34.5114 310.433 34.7216 309.683 35.142C308.944 35.5625 308.365 36.1761 307.944 36.983C307.535 37.7784 307.325 38.7386 307.314 39.8636ZM342.878 28.8182V34.2727H327.111V28.8182H342.878ZM330.69 22.5455H337.952V46.9545C337.952 47.625 338.054 48.1477 338.259 48.5227C338.463 48.8864 338.747 49.142 339.111 49.2898C339.486 49.4375 339.918 49.5114 340.406 49.5114C340.747 49.5114 341.088 49.483 341.429 49.4261C341.77 49.358 342.031 49.3068 342.213 49.2727L343.355 54.6761C342.992 54.7898 342.48 54.9205 341.821 55.0682C341.162 55.2273 340.361 55.3239 339.418 55.358C337.668 55.4261 336.134 55.1932 334.815 54.6591C333.509 54.125 332.492 53.2955 331.764 52.1705C331.037 51.0455 330.679 49.625 330.69 47.9091V22.5455Z" fill="#FEA115"/>
</svg>
